<?xml version="1.0" standalone="no"?>
<!DOCTYPE svg PUBLIC "-//W3C//DTD SVG 20010904//EN"
 "http://www.w3.org/TR/2001/REC-SVG-20010904/DTD/svg10.dtd">
<svg version="1.0" xmlns="http://www.w3.org/2000/svg"
 width="315.000000pt" height="315.000000pt" viewBox="0 0 315.000000 315.000000"
 preserveAspectRatio="xMidYMid meet">
<metadata>
Created by potrace 1.11, written by Peter Selinger 2001-2013
</metadata>
<g transform="translate(0.000000,315.000000) scale(0.100000,-0.100000)"
fill="#000000" stroke="none">
<path d="M1470 2975 c-22 -13 -121 -61 -445 -215 -58 -28 -151 -72 -207 -99
-57 -27 -179 -85 -272 -130 -92 -44 -171 -81 -175 -81 -31 -2 -44 -42 -117
-356 -41 -181 -77 -337 -79 -348 -3 -10 -18 -80 -36 -155 -17 -75 -32 -143
-34 -151 -2 -8 -17 -75 -34 -149 l-31 -133 195 -245 c108 -134 202 -252 210
-261 8 -9 44 -55 81 -102 38 -47 71 -87 74 -90 3 -3 39 -48 80 -100 41 -52 79
-100 85 -106 5 -7 28 -35 50 -63 l40 -51 660 0 660 1 77 97 c42 53 87 110 100
126 41 52 209 260 226 281 10 11 106 131 214 267 l197 247 -80 348 c-45 191
-82 349 -83 350 -5 6 -151 -36 -149 -44 1 -5 25 -111 53 -234 28 -123 59 -260
69 -304 l18 -80 -209 -260 c-114 -143 -214 -267 -221 -275 -6 -9 -30 -38 -52
-65 -22 -28 -45 -57 -52 -65 -7 -8 -52 -64 -101 -125 l-89 -110 -579 0 -579 0
-110 136 c-60 75 -122 152 -137 170 -14 19 -98 122 -185 231 -87 108 -188 234
-225 281 l-68 84 41 174 c74 320 100 434 105 458 12 60 102 446 111 474 5 18
41 37 348 182 50 23 153 73 230 110 362 174 432 208 452 216 18 6 65 -13 235
-95 117 -56 247 -118 288 -138 l75 -36 32 61 c18 34 32 67 33 72 0 13 -627
315 -652 315 -7 0 -24 -7 -38 -15z"/>
<path d="M2416 2843 c-45 -90 -46 -87 36 -126 362 -169 378 -178 388 -216 14
-54 100 -435 100 -445 0 -5 17 -6 38 -2 20 4 49 9 65 11 62 9 64 -8 -44 452
l-31 131 -46 20 c-26 11 -141 66 -255 121 -115 56 -213 101 -218 101 -5 0 -19
-21 -33 -47z"/>
<path d="M2268 2546 l-37 -74 155 -76 c85 -42 159 -76 165 -76 5 0 9 -6 10
-12 1 -19 6 -49 13 -78 4 -14 8 -36 11 -50 3 -14 9 -40 14 -58 5 -18 10 -35
10 -37 1 -3 1 -6 2 -7 0 -2 3 -16 5 -31 3 -15 9 -38 14 -51 9 -26 0 -26 130 0
14 3 28 8 31 12 4 4 -7 63 -23 132 -16 69 -31 136 -33 150 -2 14 -4 26 -6 28
-3 4 -6 16 -14 58 -9 53 -12 56 -60 79 -22 10 -108 51 -192 92 -84 40 -154 73
-155 73 -2 0 -20 -33 -40 -74z"/>
<path d="M1401 2146 c-117 -243 -91 -220 -226 -190 -62 14 -106 23 -195 40
-14 3 -43 10 -65 15 -60 15 -85 17 -90 9 -3 -4 40 -101 95 -215 55 -114 100
-210 100 -214 0 -4 -83 -74 -184 -156 -102 -83 -181 -154 -177 -158 5 -5 49
-18 97 -29 85 -19 99 -22 152 -32 12 -3 26 -7 31 -11 5 -3 22 -7 38 -10 44 -6
85 -15 118 -23 l30 -8 2 -234 c1 -128 6 -237 10 -241 7 -7 216 149 318 237 67
58 50 66 344 -164 88 -69 109 -82 113 -70 2 7 3 117 3 245 l-1 232 25 6 c15 3
35 7 46 10 11 2 85 20 165 40 80 19 167 40 194 47 l50 11 -35 31 c-20 17 -44
38 -55 46 -165 129 -293 234 -290 239 1 3 10 22 19 41 8 19 39 85 67 145 80
170 90 193 90 204 0 6 5 11 10 11 6 0 10 9 10 19 0 17 -4 18 -37 10 -21 -4
-39 -8 -40 -9 -2 0 -4 0 -5 -1 -2 0 -12 -2 -24 -4 -11 -3 -60 -14 -110 -26
-49 -11 -100 -23 -114 -24 -14 -2 -51 -10 -83 -18 -70 -18 -51 -40 -179 217
-52 105 -99 191 -104 193 -5 1 -56 -94 -113 -211z"/>
<path d="M2136 2263 l-34 -68 91 -46 92 -45 23 -95 c13 -52 25 -96 27 -97 2
-2 37 4 78 13 l74 16 -31 136 -31 135 -124 59 c-68 32 -125 59 -127 59 -2 0
-19 -30 -38 -67z"/>
</g>
</svg>
