<?xml version="1.0" encoding="iso-8859-1"?>
<!-- Generator: Adobe Illustrator 19.0.0, SVG Export Plug-In . SVG Version: 6.00 Build 0)  -->
<svg version="1.1" id="Capa_1" xmlns="http://www.w3.org/2000/svg" xmlns:xlink="http://www.w3.org/1999/xlink" x="0px" y="0px"
	 viewBox="0 0 512 512" style="enable-background:new 0 0 512 512;" xml:space="preserve">
<g>
	<g>
		<path d="M394.667,0H32C14.327,0,0,14.327,0,32v256c0,17.673,14.327,32,32,32h245.333v-21.333H32
			c-5.891,0-10.667-4.776-10.667-10.667V32c0-5.891,4.776-10.667,10.667-10.667h362.667c5.891,0,10.667,4.776,10.667,10.667v138.667
			h21.333V32C426.667,14.327,412.34,0,394.667,0z"/>
	</g>
</g>
<g>
	<g>
		<rect x="117.333" y="362.667" width="160" height="21.333"/>
	</g>
</g>
<g>
	<g>
		<rect x="10.667" y="234.667" width="266.667" height="21.333"/>
	</g>
</g>
<g>
	<g>
		<path d="M74.667,192C68.776,192,64,187.224,64,181.333V160H42.667v21.333c0,17.673,14.327,32,32,32H96V192H74.667z"/>
	</g>
</g>
<g>
	<g>
		<rect x="42.667" y="117.333" width="21.333" height="21.333"/>
	</g>
</g>
<g>
	<g>
		<path d="M480,192H330.667c-17.673,0-32,14.327-32,32v256c0,17.673,14.327,32,32,32H480c17.673,0,32-14.327,32-32V224
			C512,206.327,497.673,192,480,192z M490.667,480c0,5.891-4.776,10.667-10.667,10.667H330.667c-5.891,0-10.667-4.776-10.667-10.667
			V224c0-5.891,4.776-10.667,10.667-10.667H480c5.891,0,10.667,4.776,10.667,10.667V480z"/>
	</g>
</g>
<g>
	<g>
		<rect x="138.667" y="309.333" width="21.333" height="64"/>
	</g>
</g>
<g>
	<g>
		<rect x="309.333" y="245.333" width="192" height="21.333"/>
	</g>
</g>
<g>
	<g>
		<rect x="394.667" y="448" width="21.333" height="21.333"/>
	</g>
</g>
<g>
	<g>
		<rect x="341.333" y="288" width="21.333" height="21.333"/>
	</g>
</g>
<g>
	<g>
		<rect x="384" y="288" width="21.333" height="21.333"/>
	</g>
</g>
<g>
	<g>
		<rect x="341.333" y="330.667" width="21.333" height="21.333"/>
	</g>
</g>
<g>
</g>
<g>
</g>
<g>
</g>
<g>
</g>
<g>
</g>
<g>
</g>
<g>
</g>
<g>
</g>
<g>
</g>
<g>
</g>
<g>
</g>
<g>
</g>
<g>
</g>
<g>
</g>
<g>
</g>
</svg>
