<?xml version="1.0" encoding="iso-8859-1"?>
<!-- Generator: Adobe Illustrator 19.0.0, SVG Export Plug-In . SVG Version: 6.00 Build 0)  -->
<svg version="1.1" id="Capa_1" xmlns="http://www.w3.org/2000/svg" xmlns:xlink="http://www.w3.org/1999/xlink" x="0px" y="0px"
	 viewBox="0 0 480 480" style="enable-background:new 0 0 480 480;" xml:space="preserve">
<g>
	<g>
		<path d="M446.216,40H33.784C15.198,39.956,0.084,54.966,0,73.552v255.56c0.084,18.586,15.198,33.596,33.784,33.552h176.12V424
			H107.432c-4.418,0-8,3.582-8,8s3.582,8,8,8h265.136c4.418,0,8-3.582,8-8s-3.582-8-8-8H270.096v-61.336h176.12
			c18.586,0.044,33.7-14.966,33.784-33.552V73.552C479.916,54.966,464.802,39.956,446.216,40z M254.096,424h-28.192v-61.336h28.192
			V424z M464,329.112c-0.075,9.753-8.031,17.605-17.784,17.552H33.784c-9.753,0.053-17.709-7.799-17.784-17.552v-21.68h448V329.112z
			 M464,291.432H16V73.552C16.075,63.799,24.031,55.947,33.784,56h412.432c9.753-0.053,17.709,7.799,17.784,17.552V291.432z"/>
	</g>
</g>
<g>
	<g>
		<path d="M248,168v-16h-25.6c-1.417-11.105-5.784-21.628-12.648-30.472l18.096-18.096L216.536,92.12l-18.096,18.096
			c-8.839-6.847-19.349-11.203-30.44-12.616V72h-16v25.6c-11.105,1.417-21.628,5.784-30.472,12.648l-18.096-18.096L92.12,103.464
			l18.096,18.096c-6.847,8.839-11.203,19.349-12.616,30.44H72v16h25.6c1.407,11.102,5.764,21.624,12.616,30.472L92.12,216.568
			l11.312,11.312l18.096-18.096c8.848,6.852,19.37,11.209,30.472,12.616V248h16v-25.6c11.105-1.416,21.628-5.784,30.472-12.648
			l18.096,18.096l11.312-11.312l-18.096-18.096c6.847-8.839,11.203-19.349,12.616-30.44H248z M160,207c-25.957,0-47-21.043-47-47
			c0.031-25.945,21.055-46.969,47-47c25.957,0,47,21.043,47,47S185.957,207,160,207z"/>
	</g>
</g>
<g>
	<g>
		<path d="M352,232v-16h-10.88c-0.976-4.471-2.757-8.727-5.256-12.56l7.728-7.728L332.28,184.4l-7.728,7.728
			c-3.833-2.493-8.085-4.271-12.552-5.248V176h-16v10.88c-4.467,0.977-8.719,2.755-12.552,5.248l-7.728-7.728l-11.312,11.312
			l7.728,7.728c-2.499,3.833-4.28,8.089-5.256,12.56H256v16h10.88c0.976,4.471,2.757,8.727,5.256,12.56l-7.728,7.728L275.72,263.6
			l7.728-7.728c3.833,2.493,8.085,4.271,12.552,5.248V272h16v-10.88c4.467-0.977,8.719-2.755,12.552-5.248l7.728,7.728
			l11.312-11.312l-7.728-7.728c2.499-3.833,4.28-8.089,5.256-12.56H352z M304,246c-12.15,0-22-9.85-22-22
			c0.009-12.147,9.853-21.991,22-22c12.15,0,22,9.85,22,22S316.15,246,304,246z"/>
	</g>
</g>
<g>
	<g>
		<path d="M310.528,104c-2.42-6.776-7.753-12.108-14.528-14.528V80h-16v9.472c-6.775,2.42-12.108,7.753-14.528,14.528H256v16h9.472
			c2.42,6.775,7.753,12.108,14.528,14.528V144h16v-9.472c6.776-2.42,12.108-7.753,14.528-14.528H320v-16H310.528z M288,120
			c-4.418,0-8-3.582-8-8s3.582-8,8-8s8,3.582,8,8S292.418,120,288,120z"/>
	</g>
</g>
<g>
	<g>
		<path d="M160,128c-17.673,0-32,14.327-32,32s14.327,32,32,32s32-14.327,32-32S177.673,128,160,128z M160,176
			c-8.837,0-16-7.163-16-16s7.163-16,16-16s16,7.163,16,16S168.837,176,160,176z"/>
	</g>
</g>
<g>
</g>
<g>
</g>
<g>
</g>
<g>
</g>
<g>
</g>
<g>
</g>
<g>
</g>
<g>
</g>
<g>
</g>
<g>
</g>
<g>
</g>
<g>
</g>
<g>
</g>
<g>
</g>
<g>
</g>
</svg>
