<?xml version="1.0" encoding="iso-8859-1"?>
<!-- Generator: Adobe Illustrator 19.0.0, SVG Export Plug-In . SVG Version: 6.00 Build 0)  -->
<svg version="1.1" id="Capa_1" xmlns="http://www.w3.org/2000/svg" xmlns:xlink="http://www.w3.org/1999/xlink" x="0px" y="0px"
	 viewBox="0 0 480.318 480.318" style="enable-background:new 0 0 480.318 480.318;" xml:space="preserve">
<g>
	<g>
		<path d="M240.139,24.109c-119.294,0-216,96.706-216,216s96.706,216,216,216c119.239-0.132,215.868-96.761,216-216
			C456.139,120.815,359.433,24.109,240.139,24.109z M158.675,57.525c-13.299,24.504-23.487,50.572-30.328,77.6
			c-13.923-5.013-27.34-11.332-40.072-18.872c-1.275-0.73-2.732-1.083-4.2-1.016C104.012,90.354,129.583,70.572,158.675,57.525z
			 M76.507,125.317c0.537,1.933,1.786,3.591,3.496,4.64v0c14.207,8.402,29.214,15.369,44.8,20.8
			c-5.678,26.758-8.764,54.002-9.216,81.352H40.339C41.836,193.767,54.398,156.678,76.507,125.317z M76.507,354.901
			c-22.109-31.361-34.671-68.45-36.168-106.792h75.248c0.464,27.349,3.561,54.589,9.248,81.344
			c-15.586,5.431-30.593,12.398-44.8,20.8C78.312,351.298,77.05,352.96,76.507,354.901z M84.067,364.965
			c1.47,0.069,2.929-0.28,4.208-1.008c12.732-7.54,26.149-13.859,40.072-18.872c6.841,27.028,17.029,53.096,30.328,77.6
			C129.58,409.634,104.007,389.85,84.067,364.965z M232.139,439.877c-16.954-0.66-33.754-3.482-49.992-8.4
			c-0.081-0.237-0.175-0.469-0.28-0.696c-17.586-28.023-30.567-58.684-38.448-90.816c28.82-8.547,58.664-13.152,88.72-13.688
			V439.877z M232.139,310.509c-31.219,0.536-62.227,5.225-92.208,13.944c-5.257-25.121-8.134-50.683-8.592-76.344h100.8V310.509z
			 M232.139,232.109h-100.8c0.454-25.664,3.328-51.228,8.584-76.352c29.983,8.722,60.994,13.414,92.216,13.952V232.109z
			 M232.139,153.909c-30.056-0.536-59.9-5.141-88.72-13.688c7.885-32.121,20.865-62.771,38.448-90.784
			c0.106-0.237,0.2-0.48,0.28-0.728c16.238-4.918,33.038-7.74,49.992-8.4V153.909z M403.771,125.317
			c22.452,31.863,35.043,69.623,36.208,108.584c-1.354-1.118-3.044-1.749-4.8-1.792h-70.488
			c-0.464-27.346-3.561-54.584-9.248-81.336c15.586-5.431,30.593-12.398,44.8-20.8C401.968,128.926,403.23,127.261,403.771,125.317z
			 M396.19,115.229c-1.464-0.064-2.916,0.288-4.187,1.016c-12.732,7.54-26.149,13.859-40.072,18.872
			c-6.841-27.028-17.029-53.096-30.328-77.6C350.691,70.566,376.257,90.348,396.19,115.229z M248.139,40.309
			c16.954,0.66,33.754,3.482,49.992,8.4c0.08,0.248,0.174,0.491,0.28,0.728c17.586,28.023,30.567,58.684,38.448,90.816
			c-28.82,8.547-58.664,13.152-88.72,13.688V40.309z M248.139,169.709c31.219-0.536,62.227-5.225,92.208-13.944
			c5.258,25.121,8.135,50.682,8.592,76.344h-100.8V169.709z M248.139,248.109h100.8c-0.455,25.667-3.329,51.233-8.584,76.36
			c-29.983-8.725-60.994-13.419-92.216-13.96V248.109z M298.131,431.509c-16.238,4.918-33.038,7.74-49.992,8.4v-113.6
			c30.056,0.536,59.9,5.141,88.72,13.688c-7.881,32.132-20.862,62.793-38.448,90.816
			C298.306,431.04,298.212,431.272,298.131,431.509z M321.603,422.693c13.299-24.504,23.487-50.572,30.328-77.6
			c13.923,5.013,27.34,11.332,40.072,18.872c1.236,0.747,2.652,1.145,4.096,1.152C376.177,389.937,350.644,409.671,321.603,422.693z
			 M403.731,354.901c-0.527-1.926-1.761-3.583-3.456-4.64c-14.207-8.402-29.214-15.369-44.8-20.8
			c5.677-26.759,8.763-54.002,9.216-81.352h70.448c1.756-0.043,3.446-0.674,4.8-1.792
			C438.775,285.278,426.183,323.038,403.731,354.901z"/>
	</g>
</g>
<g>
	<g>
		<path d="M124.175,457.561c-1.546-4.142-6.158-6.246-10.3-4.7l0.04,0.048c-40.52,15-71.2,14.944-86.344-0.216
			c-16.8-16.8-15.2-51.72,4.552-98.352c1.692-4.081-0.244-8.762-4.325-10.454c-4.041-1.676-8.679,0.205-10.411,4.222
			c-22.752,53.808-23.144,93.88-1.128,115.896c12.209,11.259,28.469,17.071,45.048,16.104c19.954-0.665,39.64-4.81,58.168-12.248
			C123.617,466.314,125.722,461.703,124.175,457.561z"/>
	</g>
</g>
<g>
	<g>
		<path d="M464.059,16.229c-20.144-20.12-55.84-21.464-103.256-3.904c-4.142,1.546-6.246,6.158-4.7,10.3
			c1.546,4.142,6.158,6.246,10.3,4.7c40.52-15,71.2-14.936,86.344,0.216c16.8,16.8,15.2,51.72-4.552,98.352
			c-1.692,4.081,0.245,8.762,4.326,10.454c4.041,1.675,8.678-0.205,10.41-4.222C485.683,78.317,486.075,38.245,464.059,16.229z"/>
	</g>
</g>
<g>
	<g>
		<path d="M132.139,17.357C78.347-5.403,38.275-5.779,16.259,16.229c-20.12,20.112-21.464,55.8-3.904,103.216
			c1.546,4.142,6.158,6.246,10.3,4.7c4.142-1.546,6.246-6.158,4.7-10.3c-15.016-40.536-14.936-71.2,0.216-86.344
			c16.792-16.752,51.712-15.128,98.352,4.608c4.074,1.716,8.768-0.194,10.484-4.268S136.213,19.073,132.139,17.357z"/>
	</g>
</g>
<g>
	<g>
		<path d="M462.875,348.093c-1.723-4.061-6.407-5.961-10.472-4.248c-4.071,1.716-5.981,6.408-4.264,10.479c0,0,0,0,0,0.001
			c19.728,46.632,21.344,81.6,4.552,98.352c-16.792,16.752-51.704,15.2-98.352-4.552c-4.081-1.692-8.762,0.245-10.454,4.326
			c-1.675,4.041,0.205,8.678,4.222,10.41c22.259,10.358,46.33,16.255,70.856,17.36c16.596,0.938,32.858-4.923,45.04-16.232
			C486.019,441.973,485.603,401.901,462.875,348.093z"/>
	</g>
</g>
<g>
</g>
<g>
</g>
<g>
</g>
<g>
</g>
<g>
</g>
<g>
</g>
<g>
</g>
<g>
</g>
<g>
</g>
<g>
</g>
<g>
</g>
<g>
</g>
<g>
</g>
<g>
</g>
<g>
</g>
</svg>
