<?xml version="1.0" encoding="iso-8859-1"?>
<!-- Generator: Adobe Illustrator 19.0.0, SVG Export Plug-In . SVG Version: 6.00 Build 0)  -->
<svg version="1.1" id="Capa_1" xmlns="http://www.w3.org/2000/svg" xmlns:xlink="http://www.w3.org/1999/xlink" x="0px" y="0px"
	 viewBox="0 0 480.945 480.945" style="enable-background:new 0 0 480.945 480.945;" xml:space="preserve">
<g>
	<g>
		<path d="M287.673,202.265c-0.971-0.402-2.013-0.609-3.064-0.608h-22.96c7.005-12.208,12.063-25.433,14.992-39.2
			c1.421-6.437-0.166-13.171-4.312-18.296c-3.885-4.865-9.774-7.695-16-7.688c-9.035,0.067-16.986,5.976-19.656,14.608
			c-5.596,17.594-16.816,32.862-31.936,43.456l-18.616,12.896c-6.079,4.254-9.684,11.22-9.648,18.64v61.6
			c-0.124,9.154,7.195,16.675,16.349,16.8c0.004,0,0.007,0,0.011,0h78.72c10.374-0.155,19.244-7.506,21.32-17.672l11.424-53.816
			c0.119-0.544,0.178-1.099,0.176-1.656v-7.2C304.553,213.849,297.626,204.834,287.673,202.265z M288.473,230.489l-11.248,52.984
			c-0.459,2.805-2.832,4.896-5.672,5h-78.704c-0.26-0.161-0.406-0.456-0.376-0.76v-61.64c-0.041-2.173,0.988-4.227,2.752-5.496
			l18.624-12.904c18.006-12.61,31.378-30.779,38.064-51.72c0.575-2.013,2.388-3.421,4.48-3.48c1.37,0.021,2.656,0.662,3.496,1.744
			c1.078,1.349,1.484,3.115,1.104,4.8c-2.987,14.082-8.5,27.507-16.272,39.624l-4.248,6.632c-2.386,3.719-1.305,8.667,2.413,11.053
			c1.288,0.826,2.785,1.266,4.315,1.267l35.44,0.024c3.392,0.189,5.995,3.079,5.832,6.472V230.489z"/>
	</g>
</g>
<g>
	<g>
		<path d="M155.521,310.817c-36.43-36.105-39.061-94.122-6.048-133.376l6.536-7.848c2.746-3.461,2.167-8.493-1.294-11.239
			c-3.344-2.653-8.183-2.214-10.994,0.999l-6.544,7.848c-38.36,45.594-35.301,112.997,7.032,154.928
			c1.5,1.5,3.534,2.344,5.656,2.344c4.418-0.001,7.999-3.583,7.998-8.002C157.863,314.35,157.02,312.316,155.521,310.817z"/>
	</g>
</g>
<g>
	<g>
		<path d="M124.977,358.817c-61.297-60.752-65.727-158.37-10.184-224.424l10.672-12.8c2.828-3.395,2.367-8.44-1.028-11.268
			s-8.44-2.367-11.268,1.028l-10.664,12.8c-60.883,72.393-56.032,179.389,11.152,245.976c3.124,3.126,8.19,3.128,11.316,0.004
			C128.099,367.009,128.1,361.943,124.977,358.817z"/>
	</g>
</g>
<g>
	<g>
		<path d="M78.577,69.833l16.864-20.24c2.828-3.395,2.367-8.44-1.028-11.268s-8.44-2.367-11.268,1.028l-16.856,20.24
			c-94.673,112.594-87.111,278.993,17.384,382.536c1.486,1.487,3.498,2.329,5.6,2.344c4.418-0.001,7.999-3.583,7.998-8.002
			c0-2.121-0.843-4.154-2.342-5.654C-3.664,333.093-10.777,176.07,78.577,69.833z"/>
	</g>
</g>
<g>
	<g>
		<path d="M336.737,158.817c-3.178-3.07-8.242-2.982-11.312,0.196c-2.994,3.1-2.994,8.015,0,11.116
			c36.43,36.105,39.061,94.122,6.048,133.376l-6.536,7.848c-2.909,3.325-2.572,8.379,0.753,11.289s8.379,2.572,11.289-0.753
			c0.084-0.096,0.167-0.195,0.246-0.295l6.544-7.848C382.129,268.151,379.069,200.748,336.737,158.817z"/>
	</g>
</g>
<g>
	<g>
		<path d="M367.289,110.817c-3.07-3.178-8.134-3.266-11.312-0.196c-3.178,3.069-3.266,8.134-0.196,11.312
			c0.064,0.067,0.13,0.132,0.196,0.196c61.291,60.755,65.717,158.371,10.176,224.424l-10.672,12.8
			c-2.828,3.395-2.368,8.439,1.027,11.267c1.437,1.197,3.247,1.852,5.117,1.853v0c2.377,0.001,4.631-1.054,6.152-2.88l10.664-12.8
			C439.324,284.4,434.473,177.404,367.289,110.817z"/>
	</g>
</g>
<g>
	<g>
		<path d="M397.273,38.817c-3.12-3.102-8.16-3.102-11.28,0c-3.123,3.124-3.123,8.188,0,11.312
			c98.6,97.717,105.723,254.741,16.376,360.984l-16.864,20.24c-2.828,3.395-2.367,8.44,1.028,11.268
			c3.395,2.828,8.44,2.367,11.268-1.028l16.856-20.24C509.329,308.758,501.768,142.36,397.273,38.817z"/>
	</g>
</g>
<g>
	<g>
		<path d="M312.473,112.473c-4.418,0-8-3.582-8-8s-3.582-8-8-8s-8,3.582-8,8s-3.582,8-8,8s-8,3.582-8,8s3.582,8,8,8s8,3.582,8,8
			s3.582,8,8,8s8-3.582,8-8s3.582-8,8-8s8-3.582,8-8S316.891,112.473,312.473,112.473z"/>
	</g>
</g>
<g>
</g>
<g>
</g>
<g>
</g>
<g>
</g>
<g>
</g>
<g>
</g>
<g>
</g>
<g>
</g>
<g>
</g>
<g>
</g>
<g>
</g>
<g>
</g>
<g>
</g>
<g>
</g>
<g>
</g>
</svg>
